<?xml version="1.0" encoding="utf-8"?>
<!-- Generator: Adobe Illustrator 17.1.0, SVG Export Plug-In . SVG Version: 6.00 Build 0)  -->
<!DOCTYPE svg PUBLIC "-//W3C//DTD SVG 1.1//EN" "http://www.w3.org/Graphics/SVG/1.1/DTD/svg11.dtd">
<svg version="1.1" id="Layer_1" xmlns="http://www.w3.org/2000/svg" xmlns:xlink="http://www.w3.org/1999/xlink" x="0px" y="0px"
	 viewBox="73.153 159.559 424.055 429.735" enable-background="new 73.153 159.559 424.055 429.735" xml:space="preserve">
<g id="Layer_1_1_">
</g>
<g id="Layer_2">
	<ellipse fill="#231F20" cx="285.181" cy="374.427" rx="212.027" ry="214.868"/>
	<path fill="#CF2026" d="M176.775,219.192c0,0-15.586,23.45-17.85,28.851c0,0-8.213,15.633-9.571,19.446
		c0,0-7.114,18.366-8.278,24.149c0,0-3.428,11.185-3.557,26.564c0,0,0.13,13.727,2.975,22.941c0,0,3.88,15.57,8.989,24.276
		c0,0,6.791,14.045,12.805,20.336c0,0,10.995,14.299,23.606,20.718c0,0,12.481,9.088,34.082,5.592c0,0,15.133-2.669,25.287-15.57
		c0,0,9.183-11.111,12.417-25.192c0,0,1.682-6.837,3.169-16.179c0,0,0.582-10.867,0.582-17.349c0,0-0.258-15.315-4.915-29.233
		c0,0-3.557-12.71-13.711-24.848c0,0-11.577-14.871-24.058-22.687l-6.144-4.322l19.272-24.149c0,0,0.906-1.207,5.691,2.86
		c0,0,14.357,14.617,18.238,19.319c0,0,7.631,9.024,10.347,13.092c0,0,0.582,0.826,0-5.656c0,0-2.716-18.175-6.144-25.738
		c0,0-4.268-11.757-8.537-18.302l-3.492-5.275l16.556-20.653c0,0,17.397-21.671,20.501-25.166l8.472,10.549l17.332,20.844
		l11.383,14.489c0,0-7.502,10.804-11.317,21.416c0,0-5.885,17.158-6.597,26.182l-0.582,7.626c0,0,13.905-17.476,18.496-21.797
		c0,0,10.412-11.63,15.586-13.854l19.984,24.085c0,0-20.048,13.599-26.257,21.925c0,0-12.417,13.727-16.427,25.865
		c0,0-5.95,17.984-5.885,27.263c0,0-1.423,15.761,0.518,28.089c0-0.002,2.767,17.989,9.313,28.025
		c6.486,9.943,10.089,15.887,24.77,22.497c0,0,16.879,7.753,36.087-1.653c0,0,13.064-5.401,25.546-19.574
		c0,0,10.024-12.774,13.323-19.574c0,0,6.435-13.218,8.375-19.414c0,0,4.656-14.68,5.335-24.308c0,0,1.746-18.112-3.492-33.84
		c0,0-2.134-8.77-6.5-20.304c0,0-8.149-18.97-10.865-23.164c0,0-8.537-15.061-10.477-17.921c0,0-6.403-9.628-7.664-11.058
		c0,0,11.447,6.863,26.58,19.923c0,0,12.805,11.693,27.938,32.41c0,0,9.183,12.964,14.357,23.768c0,0,5.82,10.486,11.317,28.153
		c0,0,3.686,11.502,6.467,26.373c0,0,2.264,15.506,2.781,27.708c0,0-0.388,21.353-2.07,29.741c0,0-2.393,19.192-6.791,30.822
		l-6.855,18.62c0,0-8.731,19.637-15.004,28.407c0,0-13.517,19.7-20.048,25.738c0,0-12.353,13.727-23.412,21.925
		c0,0-14.487,11.948-32.271,20.653c0,0-14.357,8.389-37.316,14.68c0,0-17.267,4.766-33.112,6.545c0,0-16.685,1.017-27.486,0.89
		c0,0-25.804-1.843-36.54-4.576c0,0-20.63-5.084-29.167-9.088c0,0-14.681-5.211-27.356-12.773c0,0-19.725-11.63-27.098-18.684
		c0,0-17.397-15.061-23.412-22.815c0,0-13.323-15.951-17.526-23.768c0,0-8.601-13.409-12.353-22.115c0,0-6.144-13.027-10.153-27.2
		c0,0-6.015-24.149-6.273-30.822c0,0-1.682-19.891-1.164-24.594c0,0,0.712-21.607,2.005-25.865c0,0,2.91-20.463,5.368-24.784
		c0,0,7.179-23.005,9.377-25.928c0,0,9.507-19.574,12.741-23.513c0,0,11.577-17.286,15.327-20.781c0,0,7.049-9.342,17.073-17.858
		C149.419,240.608,168.626,223.259,176.775,219.192z"/>
</g>
</svg>
